<svg xmlns="http://www.w3.org/2000/svg" aria-hidden="true" style="width:0;height:0;position:absolute;overflow:hidden"><defs><symbol id="icon-arrow" viewBox="0 0 32 32"><path d="m27.482 7.059-24 24-2.541-2.541 24-24h-24V.942h30.118V31.06h-3.576v-24z"/><path d="M3.482 31.435.564 28.517 24.376 4.799H.752V.752H31.34V31.34h-4.047V7.622L3.481 31.434zm24.189-.564h3.106V1.224H1.224V4.33h24.282L1.318 28.518l2.259 2.259L27.671 6.495v24.376z"/></symbol><symbol id="icon-divider-right" viewBox="0 0 32 32"><path d="m-.259 18.812 32.323 13.253V-.258L-.259 13.253z"/></symbol><symbol id="icon-divider-left" viewBox="0 0 32 32"><path d="M32.256 13.376.256.256v32l32-12.8z"/></symbol><symbol id="icon-search" viewBox="0 0 32 32"><path d="M14.6 26.8c-6.8 0-12.2-5.4-12.2-12.2.2-6.6 5.6-12 12.2-12 6.8 0 12.2 5.4 12.2 12.2 0 6.6-5.4 12-12.2 12zm0-21.2c-5 0-9.2 4.2-9.2 9.2S9.6 24 14.6 24c5 0 9.2-4.2 9.2-9.2 0-5.2-4-9.2-9.2-9.2z"/><path d="M28 29.6c-.4 0-.8-.2-1-.4l-5.8-5.8c-.6-.6-.6-1.6 0-2.2s1.6-.6 2.2 0l5.8 5.8c.6.6.6 1.6 0 2.2-.4.2-.8.4-1.2.4z"/></symbol><symbol id="icon-logo" viewBox="0 0 202 32"><path fill="#ed1d24" style="fill:var(--color1,#ed1d24)" d="M0 .5h98v31H0V.5z"/><path fill="#fafafa" style="fill:var(--color2,#fafafa)" d="M4.3 26.5V6.9h4.5L10.4 17 12 6.9h4.6v19.6H13V17l-1.6 9.4H9.5L7.9 17v9.4H4.3zM24.5 6.9l3 19.6h-3.6l-.4-3h-2.7l-.4 3h-3.5l2.9-19.6h4.7zm-1.3 13.4-1-8.2-1 8.2h2zM31.6 6.9c.7 0 1.3.1 1.8.3.6.2 1.1.5 1.6 1 .5.4.8 1 1.1 1.7s.5 1.5.6 2.5c.1 1.2.1 2.2-.1 3.1-.2.8-.4 1.4-.7 1.9-.3.6-.7 1.1-1.1 1.4l2.3 7.7h-3.6l-1.7-6.6-.8.1v6.4h-3.5V6.8h4.1zm-.5 9.7c.4 0 .8-.1 1.1-.3s.5-.4.7-.7c.2-.3.3-.6.4-1s.1-.7.1-1.1c0-.4 0-.8-.1-1.1-.1-.4-.2-.7-.4-1s-.4-.6-.7-.8c-.3-.2-.6-.3-1.1-.3v6.3zM39.9 6.9l1.6 11.8 1.7-11.8h3.5l-3.1 19.6h-4.1L36.2 6.9h3.7zM46.8 26.5V6.9h6.6v3.5h-3v4.4h3v3.6h-3.2v4.4h3.2v3.6h-6.6zM58 6.9V23h3v3.6h-6.5V6.9H58zM61.9 16.7c0-1.5.1-2.8.4-4s.6-2.2 1.1-3.1c.5-.9 1-1.5 1.7-2s1.4-.7 2.2-.7c.8 0 1.5.2 2.2.7s1.2 1.1 1.7 2c.5.9.8 1.9 1.1 3.1s.4 2.5.4 4-.1 2.8-.4 4-.6 2.2-1.1 3.1c-.5.9-1 1.5-1.7 2s-1.4.7-2.2.7c-.8 0-1.5-.2-2.2-.7s-1.2-1.1-1.7-2c-.5-.9-.8-1.9-1.1-3.1-.2-1.2-.4-2.5-.4-4zm3.5.1c0 .9 0 1.8.1 2.5.1.8.2 1.4.4 2 .2.5.4 1 .6 1.3s.5.4.8.4.5-.1.8-.4c.2-.3.4-.7.6-1.3s.3-1.2.4-2c.1-.8.1-1.6.1-2.5s0-1.8-.1-2.5c-.1-.8-.2-1.4-.4-2-.1-.5-.3-1-.6-1.3-.2-.3-.5-.4-.8-.4s-.5.1-.8.4c-.2.3-.4.7-.6 1.3-.2.5-.3 1.2-.4 2-.1.7-.1 1.5-.1 2.5zM84.2 16.8v2.1c0 .7 0 1.5-.1 2.2-.1.7-.2 1.4-.4 2-.2.7-.5 1.2-.9 1.7s-.9.9-1.5 1.2c-.6.3-1.4.4-2.4.4-1.3 0-2.3-.2-3-.7-.7-.4-1.2-1.1-1.6-1.9-.3-.8-.5-1.8-.6-3s-.1-2.5-.1-3.9v-10H77v9.9c0 1.2.1 2.2.2 3.1.1.4.1.8.2 1.1.1.4.2.7.3 1s.3.5.5.7c.2.2.4.3.6.3.3 0 .5-.1.7-.3s.4-.4.5-.7c.1-.3.3-.6.3-1 .1-.4.2-.8.2-1.1.1-.9.2-1.9.1-3.1V6.9h3.5v9.9zM93.2 6.9V10.5c-.6 0-1.2.1-1.8.2s-1.1.3-1.6.5c-.4.2-.8.5-1.1.8s-.4.6-.4 1c0 .3.1.6.4.9.3.2.6.5.9.7.4.2.8.5 1.2.8s.8.6 1.2 1c.4.4.7.9.9 1.4.3.6.4 1.2.4 2 0 1.2-.2 2.2-.7 3.1-.4.8-1 1.5-1.8 2.1-.7.5-1.6.9-2.6 1.2s-2.1.4-3.2.4V23c.3 0 .8-.1 1.3-.2s1.1-.3 1.6-.6 1-.6 1.3-1c.4-.4.6-1 .5-1.6 0-.3-.1-.6-.4-.8-.2-.2-.6-.5-.9-.7-.4-.2-.7-.5-1.1-.8s-.8-.6-1.2-1c-.4-.4-.7-.9-.9-1.5s-.3-1.3-.3-2.1c0-.9.2-1.7.7-2.4s1.1-1.4 1.9-1.9c.8-.5 1.7-.9 2.6-1.2 1.1-.2 2.1-.3 3.1-.3zM109.8 6.9l3 19.6h-3.6l-.4-3h-2.7l-.4 3h-3.5l2.9-19.6h4.7zm-1.4 13.4-1-8.2-1 8.2h2z"/><path fill="#fafafa" style="fill:var(--color2,#fafafa)" d="M116.2 6.9c.9 0 1.7.2 2.3.5.7.3 1.2.8 1.7 1.3.5.6.9 1.2 1.1 2 .3.7.5 1.5.7 2.3s.3 1.6.3 2.4c.1.8.1 1.5.1 2.2 0 1.5-.2 2.8-.5 3.8s-.7 1.9-1.2 2.5c-.5.7-1 1.2-1.5 1.5-.9.7-2 1-3.2 1.1h-3.4l.1-19.6h3.5zm.1 16.6h.2c.1 0 .3-.1.5-.2s.5-.3.7-.6c.3-.3.5-.6.7-1.1s.4-1.1.5-1.8c.1-.7.2-1.7.2-2.7V16c0-.4-.1-.9-.1-1.4-.1-.5-.1-1-.3-1.5-.1-.5-.3-1-.5-1.4s-.5-.7-.8-1c-.3-.3-.7-.4-1.1-.4v13.2zM127 6.9l1.6 11.8 1.7-11.8h3.5l-3.1 19.6h-4.1l-3.1-19.6h3.5zM134 26.5V6.9h6.6v3.5h-3v4.4h3v3.6h-3.2v4.4h3.2v3.6H134zM141.7 26.5V6.9h3.5l3 10.1V6.9h3.6v19.6h-3.6l-3-9.4v9.4h-3.5zM163.6 6.9v3.6h-3.5v16h-3.4v-16h-3.8V6.9h10.7zM175.8 16.8v2.1c0 .7 0 1.5-.1 2.2-.1.7-.2 1.4-.4 2-.2.7-.5 1.2-.9 1.7s-.9.9-1.5 1.2c-.6.3-1.4.4-2.4.4-1.3 0-2.3-.2-3-.7-.7-.4-1.2-1.1-1.6-1.9-.3-.8-.5-1.8-.6-3s-.1-2.5-.1-3.9v-10h3.4v9.9c0 1.2.1 2.2.2 3.1.1.4.1.8.2 1.1.1.4.2.7.3 1s.3.5.5.7c.2.2.4.3.6.3.3 0 .5-.1.7-.3s.4-.4.5-.7c.1-.3.3-.6.3-1 .1-.4.2-.8.2-1.1.1-.9.2-1.9.1-3.1V6.9h3.5v9.9zM180.6 6.9c.7 0 1.3.1 1.8.3.6.2 1.1.5 1.6 1 .5.4.8 1 1.1 1.7s.5 1.5.6 2.5c.1 1.2.1 2.2-.1 3.1-.2.8-.4 1.4-.7 1.9-.3.6-.7 1.1-1.1 1.4l2.3 7.7h-3.6l-1.7-6.6-.8.1v6.4h-3.5V6.8h4.1zm-.5 9.7c.4 0 .8-.1 1.1-.3s.5-.4.7-.7c.2-.3.3-.6.4-1s.1-.7.1-1.1c0-.4 0-.8-.1-1.1-.1-.4-.2-.7-.4-1s-.4-.6-.7-.8c-.3-.2-.6-.3-1.1-.3v6.3z"/><path fill="#fafafa" style="fill:var(--color2,#fafafa)" d="M185.2 26.5V6.9h6.6v3.5h-3v4.4h3v3.6h-3.2v4.4h3.2v3.6h-6.6zM201 6.9V10.5c-.6 0-1.2.1-1.8.2s-1.1.3-1.6.5c-.4.2-.8.5-1.1.8s-.4.6-.4 1c0 .3.1.6.4.9.3.2.6.5.9.7.4.2.8.5 1.2.8s.8.6 1.2 1c.4.4.7.9.9 1.4.3.6.4 1.2.4 2 0 1.2-.2 2.2-.7 3.1-.4.8-1 1.5-1.8 2.1-.7.5-1.6.9-2.6 1.2s-2.1.4-3.2.4V23c.3 0 .8-.1 1.3-.2s1.1-.3 1.6-.6 1-.6 1.3-1c.4-.4.6-1 .5-1.6 0-.3-.1-.6-.4-.8-.2-.2-.6-.5-.9-.7-.4-.2-.7-.5-1.1-.8s-.8-.6-1.2-1c-.4-.4-.7-.9-.9-1.5s-.3-1.3-.3-2.1c0-.9.2-1.7.7-2.4s1.1-1.4 1.9-1.9c.8-.5 1.7-.9 2.6-1.2 1.2-.2 2.2-.3 3.1-.3zM104 1h96v1h-96V1zM104 31h96v1h-96v-1z"/></symbol><symbol id="icon-facebook" viewBox="0 0 18 32"><path d="M14.45 5.602h2.924V.655a40.727 40.727 0 0 0-4.262-.218c-4.231 0-7.124 2.582-7.124 7.311v4.076H1.212v5.538h4.776v14.187h5.724V17.362h4.76l.716-5.538h-5.476V8.293c0-1.633.436-2.691 2.738-2.691z"/></symbol><symbol id="icon-instagram" viewBox="0 0 32 32"><path d="M23.983 6.229a1.794 1.794 0 0 0-1.758 2.141 1.794 1.794 0 0 0 2.443 1.306 1.79 1.79 0 0 0 1.106-1.656 1.792 1.792 0 0 0-1.792-1.792zm6.869 3.614a11.33 11.33 0 0 0-.687-3.629 7.38 7.38 0 0 0-1.732-2.643 7.01 7.01 0 0 0-2.643-1.717 10.905 10.905 0 0 0-3.629-.702c-1.583-.09-2.091-.09-6.152-.09s-4.57 0-6.152.09a10.905 10.905 0 0 0-3.629.702 7.135 7.135 0 0 0-2.643 1.717 7.01 7.01 0 0 0-1.717 2.643 10.905 10.905 0 0 0-.702 3.629c-.09 1.583-.09 2.091-.09 6.153s0 4.57.09 6.152c.026 1.241.263 2.468.702 3.629.365 1 .952 1.904 1.717 2.643a7.135 7.135 0 0 0 2.643 1.717c1.161.439 2.388.676 3.629.702 1.583.09 2.091.09 6.152.09s4.57 0 6.152-.09a10.905 10.905 0 0 0 3.629-.702c1-.365 1.904-.952 2.643-1.717a7.243 7.243 0 0 0 1.732-2.643 11.33 11.33 0 0 0 .687-3.629c0-1.583.09-2.091.09-6.152s0-4.57-.09-6.153zm-2.688 12.126a8.39 8.39 0 0 1-.508 2.778 4.556 4.556 0 0 1-1.12 1.717 4.763 4.763 0 0 1-1.717 1.12 8.39 8.39 0 0 1-2.778.508c-1.493.075-2.046.09-5.973.09s-4.48 0-5.973-.09a8.566 8.566 0 0 1-2.897-.448 4.885 4.885 0 0 1-1.643-1.12 4.48 4.48 0 0 1-1.105-1.717 8.25 8.25 0 0 1-.597-2.837c0-1.493-.09-2.046-.09-5.973s0-4.48.09-5.973a8.281 8.281 0 0 1 .523-2.837 4.482 4.482 0 0 1 1.18-1.643 4.7 4.7 0 0 1 1.643-1.195 8.58 8.58 0 0 1 2.837-.508c1.493 0 2.046-.09 5.973-.09s4.48 0 5.973.09a8.39 8.39 0 0 1 2.778.508 4.56 4.56 0 0 1 1.777 1.195c.489.459.872 1.02 1.12 1.643a8.37 8.37 0 0 1 .508 2.837c.075 1.493.09 2.046.09 5.973s-.015 4.48-.09 5.973zM16.008 8.335a7.667 7.667 0 0 0-7.067 4.739 7.66 7.66 0 0 0 10.017 9.997 7.657 7.657 0 0 0 4.726-7.077 7.645 7.645 0 0 0-7.675-7.66zm0 12.634a4.979 4.979 0 0 1-4.595-3.07 4.975 4.975 0 0 1 3.624-6.78 4.974 4.974 0 0 1 5.564 6.781 4.965 4.965 0 0 1-2.691 2.691 4.97 4.97 0 0 1-1.903.379z"/></symbol><symbol id="icon-twitter" viewBox="0 0 36 32"><path d="M12.4 31.2c-4 0-8-1-11.8-3.2-.8-.4-1-1.2-.8-2s1-1.2 1.8-1.4c2.2 0 4.6-.4 6.6-1.2C-.6 17.6.4 7.2 2.2 2.2c.2-.6.8-1 1.4-1.2.6 0 1.4.2 1.6.8C6.6 3.8 9 6.4 11 7.4c1.6.8 3.2 1.2 5 1.4 0-1.6.6-3.2 1.4-4.6 1-1.4 2.4-2.6 4-3.2s3.4-.8 5.2-.4c1.2.4 2.4 1 3.4 1.8 1.2-.4 2.2-1 3.2-1.8.6-.4 1.4-.4 2 0s1 1.2.8 2c-.6 2.2-1.6 4-3 5.6v.6c0 8.4-3.6 15.2-10.2 19-3 2.4-6.6 3.4-10.4 3.4zm-3.8-4c4.4 1 9 .2 12.8-2 5.4-3.2 8.4-9 8.4-16v-1c-.2-.6 0-1.2.6-1.6l.2-.2c-.6.2-1.4 0-1.8-.6-.6-.8-1.6-1.2-2.6-1.6-1-.2-2-.2-3 .2s-1.8 1-2.4 1.8-1 2-1 3v1.6c0 1-.8 1.8-1.8 1.8-3 0-5.8-.6-8.4-1.8-1.6-1-3.2-2.4-4.8-4-.6 4.2-.2 11.4 7.8 15 .6.2 1 .8 1 1.4s-.2 1.2-.8 1.6c-1.2 1.2-2.6 1.8-4.2 2.4z"/></symbol><symbol id="icon-next" viewBox="0 0 32 32"><path d="M10.453 9.88 16.56 16l-6.107 6.12 1.88 1.88 8-8-8-8-1.88 1.88z"/></symbol><symbol id="icon-prev" viewBox="0 0 32 32"><path d="M21.547 9.88 15.44 16l6.107 6.12-1.88 1.88-8-8 8-8 1.88 1.88z"/></symbol></defs></svg>