<svg xmlns="http://www.w3.org/2000/svg" aria-hidden="true" style="width:0;height:0;position:absolute;overflow:hidden"><defs><symbol id="icon-arrow" viewBox="0 0 34 32"><path d="M25.588 15.206 15.275 25.519l-1.097-1.097 10.313-10.313H14.178v-1.552H27.14v12.962h-1.552V15.206z"/></symbol><symbol id="icon-divider" viewBox="0 0 1013 32"><path d="M26.667 13.333 0 .604v30.792l26.667-12.729v-5.333zm960 5.334 26.667 12.729V.604l-26.667 12.729v5.333zM24 18.667h965.333v-5.333H24v5.333z"/></symbol><symbol id="icon-search" viewBox="0 0 32 32"><path d="M14.6 26.8c-6.8 0-12.2-5.4-12.2-12.2.2-6.6 5.6-12 12.2-12 6.8 0 12.2 5.4 12.2 12.2 0 6.6-5.4 12-12.2 12zm0-21.2c-5 0-9.2 4.2-9.2 9.2S9.6 24 14.6 24c5 0 9.2-4.2 9.2-9.2 0-5.2-4-9.2-9.2-9.2z"/><path d="M28 29.6c-.4 0-.8-.2-1-.4l-5.8-5.8c-.6-.6-.6-1.6 0-2.2s1.6-.6 2.2 0l5.8 5.8c.6.6.6 1.6 0 2.2-.4.2-.8.4-1.2.4z"/></symbol></defs></svg>