<svg xmlns="http://www.w3.org/2000/svg" aria-hidden="true" style="width:0;height:0;position:absolute;overflow:hidden"><defs><symbol id="icon-arrow" viewBox="0 0 32 32"><path d="m27.482 7.059-24 24-2.541-2.541 24-24h-24V.942h30.118V31.06h-3.576v-24z"/><path d="M3.482 31.435.564 28.517 24.376 4.799H.752V.752H31.34V31.34h-4.047V7.622L3.481 31.434zm24.189-.564h3.106V1.224H1.224V4.33h24.282L1.318 28.518l2.259 2.259L27.671 6.495v24.376z"/></symbol><symbol id="icon-divider-right" viewBox="0 0 32 32"><path d="m-.259 18.812 32.323 13.253V-.258L-.259 13.253z"/></symbol><symbol id="icon-divider-left" viewBox="0 0 32 32"><path d="M32.256 13.376.256.256v32l32-12.8z"/></symbol><symbol id="icon-search" viewBox="0 0 32 32"><path d="M14.6 26.8c-6.8 0-12.2-5.4-12.2-12.2.2-6.6 5.6-12 12.2-12 6.8 0 12.2 5.4 12.2 12.2 0 6.6-5.4 12-12.2 12zm0-21.2c-5 0-9.2 4.2-9.2 9.2S9.6 24 14.6 24c5 0 9.2-4.2 9.2-9.2 0-5.2-4-9.2-9.2-9.2z"/><path d="M28 29.6c-.4 0-.8-.2-1-.4l-5.8-5.8c-.6-.6-.6-1.6 0-2.2s1.6-.6 2.2 0l5.8 5.8c.6.6.6 1.6 0 2.2-.4.2-.8.4-1.2.4z"/></symbol></defs></svg>