<svg xmlns="http://www.w3.org/2000/svg" aria-hidden="true" style="position:absolute;width:0;height:0;overflow:hidden">
  <defs>
    <symbol id="icon-arrow" viewBox="0 0 32 32">
      <path d="M27.482 7.059l-24 24-2.541-2.541 24-24h-24v-3.576h30.118v30.118h-3.576v-24z"/>
      <path
        d="M3.482 31.435l-2.918-2.918 23.812-23.718h-23.624v-4.047h30.588v30.588h-4.047v-23.718l-23.812 23.812zM27.671 30.871h3.106v-29.647h-29.553v3.106h24.282l-24.188 24.188 2.259 2.259 24.094-24.282v24.376z"/>
    </symbol>
    <symbol id="icon-divider-right" viewBox="0 0 32 32">
      <path d="M-0.259 18.812l32.323 13.253v-32.323l-32.323 13.511z"/>
    </symbol>
    <symbol id="icon-divider-left" viewBox="0 0 32 32">
      <path d="M32.256 13.376l-32-13.12v32l32-12.8z"/>
    </symbol>
    <symbol id="icon-search" viewBox="0 0 32 32">
      <path
        d="M14.6 26.8c-6.8 0-12.2-5.4-12.2-12.2.2-6.6 5.6-12 12.2-12 6.8 0 12.2 5.4 12.2 12.2 0 6.6-5.4 12-12.2 12zm0-21.2c-5 0-9.2 4.2-9.2 9.2S9.6 24 14.6 24c5 0 9.2-4.2 9.2-9.2 0-5.2-4-9.2-9.2-9.2z"/>
      <path
        d="M28 29.6c-.4 0-.8-.2-1-.4l-5.8-5.8c-.6-.6-.6-1.6 0-2.2s1.6-.6 2.2 0l5.8 5.8c.6.6.6 1.6 0 2.2-.4.2-.8.4-1.2.4z"/>
    </symbol>
  </defs>
</svg>