<svg xmlns="http://www.w3.org/2000/svg" aria-hidden="true" style="position:absolute;width:0;height:0;overflow:hidden">
  <defs>
    <symbol id="icon-arrow" viewBox="0 0 32 32">
      <path d="M27.482 7.059l-24 24-2.541-2.541 24-24h-24v-3.576h30.118v30.118h-3.576v-24z"/>
      <path
        d="M3.482 31.435l-2.918-2.918 23.812-23.718h-23.624v-4.047h30.588v30.588h-4.047v-23.718l-23.812 23.812zM27.671 30.871h3.106v-29.647h-29.553v3.106h24.282l-24.188 24.188 2.259 2.259 24.094-24.282v24.376z"/>
    </symbol>
    <symbol id="icon-divider-right" viewBox="0 0 32 32">
      <path d="M-0.259 18.812l32.323 13.253v-32.323l-32.323 13.511z"/>
    </symbol>
    <symbol id="icon-divider-left" viewBox="0 0 32 32">
      <path d="M32.256 13.376l-32-13.12v32l32-12.8z"/>
    </symbol>
    <symbol id="icon-search" viewBox="0 0 32 32">
      <path
        d="M14.6 26.8c-6.8 0-12.2-5.4-12.2-12.2.2-6.6 5.6-12 12.2-12 6.8 0 12.2 5.4 12.2 12.2 0 6.6-5.4 12-12.2 12zm0-21.2c-5 0-9.2 4.2-9.2 9.2S9.6 24 14.6 24c5 0 9.2-4.2 9.2-9.2 0-5.2-4-9.2-9.2-9.2z"/>
      <path
        d="M28 29.6c-.4 0-.8-.2-1-.4l-5.8-5.8c-.6-.6-.6-1.6 0-2.2s1.6-.6 2.2 0l5.8 5.8c.6.6.6 1.6 0 2.2-.4.2-.8.4-1.2.4z"/>
    </symbol>
    <symbol id="icon-logo" viewBox="0 0 202 32">
      <path fill="#ed1d24" style="fill: var(--color1, #ed1d24)" d="M0 0.5h98v31h-98v-31z"></path>
      <path fill="#fafafa" style="fill: var(--color2, #fafafa)" d="M4.3 26.5v-19.6h4.5l1.6 10.1 1.6-10.1h4.6v19.6h-3.6v-9.5l-1.6 9.4h-1.9l-1.6-9.4v9.4h-3.6z"></path>
      <path fill="#fafafa" style="fill: var(--color2, #fafafa)" d="M24.5 6.9l3 19.6h-3.6l-0.4-3h-2.7l-0.4 3h-3.5l2.9-19.6h4.7zM23.2 20.3l-1-8.2-1 8.2h2z"></path>
      <path fill="#fafafa" style="fill: var(--color2, #fafafa)" d="M31.6 6.9c0.7 0 1.3 0.1 1.8 0.3 0.6 0.2 1.1 0.5 1.6 1 0.5 0.4 0.8 1 1.1 1.7s0.5 1.5 0.6 2.5c0.1 1.2 0.1 2.2-0.1 3.1-0.2 0.8-0.4 1.4-0.7 1.9-0.3 0.6-0.7 1.1-1.1 1.4l2.3 7.7h-3.6l-1.7-6.6-0.8 0.1v6.4h-3.5v-19.6h4.1zM31.1 16.6c0.4 0 0.8-0.1 1.1-0.3s0.5-0.4 0.7-0.7c0.2-0.3 0.3-0.6 0.4-1s0.1-0.7 0.1-1.1c0-0.4 0-0.8-0.1-1.1-0.1-0.4-0.2-0.7-0.4-1s-0.4-0.6-0.7-0.8c-0.3-0.2-0.6-0.3-1.1-0.3v6.3z"></path>
      <path fill="#fafafa" style="fill: var(--color2, #fafafa)" d="M39.9 6.9l1.6 11.8 1.7-11.8h3.5l-3.1 19.6h-4.1l-3.3-19.6h3.7z"></path>
      <path fill="#fafafa" style="fill: var(--color2, #fafafa)" d="M46.8 26.5v-19.6h6.6v3.5h-3v4.4h3v3.6h-3.2v4.4h3.2v3.6h-6.6z"></path>
      <path fill="#fafafa" style="fill: var(--color2, #fafafa)" d="M58 6.9v16.1h3v3.6h-6.5v-19.7h3.5z"></path>
      <path fill="#fafafa" style="fill: var(--color2, #fafafa)" d="M61.9 16.7c0-1.5 0.1-2.8 0.4-4s0.6-2.2 1.1-3.1c0.5-0.9 1-1.5 1.7-2s1.4-0.7 2.2-0.7c0.8 0 1.5 0.2 2.2 0.7s1.2 1.1 1.7 2c0.5 0.9 0.8 1.9 1.1 3.1s0.4 2.5 0.4 4c0 1.5-0.1 2.8-0.4 4s-0.6 2.2-1.1 3.1c-0.5 0.9-1 1.5-1.7 2s-1.4 0.7-2.2 0.7c-0.8 0-1.5-0.2-2.2-0.7s-1.2-1.1-1.7-2c-0.5-0.9-0.8-1.9-1.1-3.1-0.2-1.2-0.4-2.5-0.4-4zM65.4 16.8c0 0.9 0 1.8 0.1 2.5 0.1 0.8 0.2 1.4 0.4 2 0.2 0.5 0.4 1 0.6 1.3s0.5 0.4 0.8 0.4 0.5-0.1 0.8-0.4c0.2-0.3 0.4-0.7 0.6-1.3s0.3-1.2 0.4-2c0.1-0.8 0.1-1.6 0.1-2.5s0-1.8-0.1-2.5c-0.1-0.8-0.2-1.4-0.4-2-0.1-0.5-0.3-1-0.6-1.3-0.2-0.3-0.5-0.4-0.8-0.4s-0.5 0.1-0.8 0.4c-0.2 0.3-0.4 0.7-0.6 1.3-0.2 0.5-0.3 1.2-0.4 2-0.1 0.7-0.1 1.5-0.1 2.5z"></path>
      <path fill="#fafafa" style="fill: var(--color2, #fafafa)" d="M84.2 16.8c0 0.7 0 1.4 0 2.1s0 1.5-0.1 2.2c-0.1 0.7-0.2 1.4-0.4 2-0.2 0.7-0.5 1.2-0.9 1.7s-0.9 0.9-1.5 1.2c-0.6 0.3-1.4 0.4-2.4 0.4-1.3 0-2.3-0.2-3-0.7-0.7-0.4-1.2-1.1-1.6-1.9-0.3-0.8-0.5-1.8-0.6-3s-0.1-2.5-0.1-3.9v-10h3.4v9.9c0 1.2 0.1 2.2 0.2 3.1 0.1 0.4 0.1 0.8 0.2 1.1 0.1 0.4 0.2 0.7 0.3 1s0.3 0.5 0.5 0.7c0.2 0.2 0.4 0.3 0.6 0.3 0.3 0 0.5-0.1 0.7-0.3s0.4-0.4 0.5-0.7c0.1-0.3 0.3-0.6 0.3-1 0.1-0.4 0.2-0.8 0.2-1.1 0.1-0.9 0.2-1.9 0.1-3.1v-9.9h3.5v9.9z"></path>
      <path fill="#fafafa" style="fill: var(--color2, #fafafa)" d="M93.2 6.9c0 0 0 0.2 0 0.6s0 0.7 0 1.2c0 0.5 0 1.1 0 1.8-0.6 0-1.2 0.1-1.8 0.2s-1.1 0.3-1.6 0.5c-0.4 0.2-0.8 0.5-1.1 0.8s-0.4 0.6-0.4 1c0 0.3 0.1 0.6 0.4 0.9 0.3 0.2 0.6 0.5 0.9 0.7 0.4 0.2 0.8 0.5 1.2 0.8s0.8 0.6 1.2 1c0.4 0.4 0.7 0.9 0.9 1.4 0.3 0.6 0.4 1.2 0.4 2 0 1.2-0.2 2.2-0.7 3.1-0.4 0.8-1 1.5-1.8 2.1-0.7 0.5-1.6 0.9-2.6 1.2s-2.1 0.4-3.2 0.4v-3.6c0.3 0 0.8-0.1 1.3-0.2s1.1-0.3 1.6-0.6c0.5-0.3 1-0.6 1.3-1 0.4-0.4 0.6-1 0.5-1.6 0-0.3-0.1-0.6-0.4-0.8-0.2-0.2-0.6-0.5-0.9-0.7-0.4-0.2-0.7-0.5-1.1-0.8s-0.8-0.6-1.2-1c-0.4-0.4-0.7-0.9-0.9-1.5s-0.3-1.3-0.3-2.1c0-0.9 0.2-1.7 0.7-2.4s1.1-1.4 1.9-1.9c0.8-0.5 1.7-0.9 2.6-1.2 1.1-0.2 2.1-0.3 3.1-0.3z"></path>
      <path fill="#fafafa" style="fill: var(--color2, #fafafa)" d="M109.8 6.9l3 19.6h-3.6l-0.4-3h-2.7l-0.4 3h-3.5l2.9-19.6h4.7zM108.4 20.3l-1-8.2-1 8.2h2z"></path>
      <path fill="#fafafa" style="fill: var(--color2, #fafafa)" d="M116.2 6.9c0.9 0 1.7 0.2 2.3 0.5 0.7 0.3 1.2 0.8 1.7 1.3 0.5 0.6 0.9 1.2 1.1 2 0.3 0.7 0.5 1.5 0.7 2.3s0.3 1.6 0.3 2.4c0.1 0.8 0.1 1.5 0.1 2.2 0 1.5-0.2 2.8-0.5 3.8s-0.7 1.9-1.2 2.5c-0.5 0.7-1 1.2-1.5 1.5-0.9 0.7-2 1-3.2 1.1h-3.4l0.1-19.6h3.5zM116.3 23.5c0 0 0.1 0 0.2 0s0.3-0.1 0.5-0.2c0.2-0.1 0.5-0.3 0.7-0.6 0.3-0.3 0.5-0.6 0.7-1.1s0.4-1.1 0.5-1.8c0.1-0.7 0.2-1.7 0.2-2.7 0-0.3 0-0.6 0-1.1 0-0.4-0.1-0.9-0.1-1.4-0.1-0.5-0.1-1-0.3-1.5-0.1-0.5-0.3-1-0.5-1.4s-0.5-0.7-0.8-1c-0.3-0.3-0.7-0.4-1.1-0.4v13.2z"></path>
      <path fill="#fafafa" style="fill: var(--color2, #fafafa)" d="M127 6.9l1.6 11.8 1.7-11.8h3.5l-3.1 19.6h-4.1l-3.1-19.6h3.5z"></path>
      <path fill="#fafafa" style="fill: var(--color2, #fafafa)" d="M134 26.5v-19.6h6.6v3.5h-3v4.4h3v3.6h-3.2v4.4h3.2v3.6h-6.6z"></path>
      <path fill="#fafafa" style="fill: var(--color2, #fafafa)" d="M141.7 26.5v-19.6h3.5l3 10.1v-10.1h3.6v19.6h-3.6l-3-9.4v9.4h-3.5z"></path>
      <path fill="#fafafa" style="fill: var(--color2, #fafafa)" d="M163.6 6.9v3.6h-3.5v16h-3.4v-16h-3.8v-3.6h10.7z"></path>
      <path fill="#fafafa" style="fill: var(--color2, #fafafa)" d="M175.8 16.8c0 0.7 0 1.4 0 2.1s0 1.5-0.1 2.2c-0.1 0.7-0.2 1.4-0.4 2-0.2 0.7-0.5 1.2-0.9 1.7s-0.9 0.9-1.5 1.2c-0.6 0.3-1.4 0.4-2.4 0.4-1.3 0-2.3-0.2-3-0.7-0.7-0.4-1.2-1.1-1.6-1.9-0.3-0.8-0.5-1.8-0.6-3s-0.1-2.5-0.1-3.9v-10h3.4v9.9c0 1.2 0.1 2.2 0.2 3.1 0.1 0.4 0.1 0.8 0.2 1.1 0.1 0.4 0.2 0.7 0.3 1s0.3 0.5 0.5 0.7c0.2 0.2 0.4 0.3 0.6 0.3 0.3 0 0.5-0.1 0.7-0.3s0.4-0.4 0.5-0.7c0.1-0.3 0.3-0.6 0.3-1 0.1-0.4 0.2-0.8 0.2-1.1 0.1-0.9 0.2-1.9 0.1-3.1v-9.9h3.5v9.9z"></path>
      <path fill="#fafafa" style="fill: var(--color2, #fafafa)" d="M180.6 6.9c0.7 0 1.3 0.1 1.8 0.3 0.6 0.2 1.1 0.5 1.6 1 0.5 0.4 0.8 1 1.1 1.7s0.5 1.5 0.6 2.5c0.1 1.2 0.1 2.2-0.1 3.1-0.2 0.8-0.4 1.4-0.7 1.9-0.3 0.6-0.7 1.1-1.1 1.4l2.3 7.7h-3.6l-1.7-6.6-0.8 0.1v6.4h-3.5v-19.6h4.1zM180.1 16.6c0.4 0 0.8-0.1 1.1-0.3s0.5-0.4 0.7-0.7c0.2-0.3 0.3-0.6 0.4-1s0.1-0.7 0.1-1.1c0-0.4 0-0.8-0.1-1.1-0.1-0.4-0.2-0.7-0.4-1s-0.4-0.6-0.7-0.8c-0.3-0.2-0.6-0.3-1.1-0.3v6.3z"></path>
      <path fill="#fafafa" style="fill: var(--color2, #fafafa)" d="M185.2 26.5v-19.6h6.6v3.5h-3v4.4h3v3.6h-3.2v4.4h3.2v3.6h-6.6z"></path>
      <path fill="#fafafa" style="fill: var(--color2, #fafafa)" d="M201 6.9c0 0 0 0.2 0 0.6s0 0.7 0 1.2c0 0.5 0 1.1 0 1.8-0.6 0-1.2 0.1-1.8 0.2s-1.1 0.3-1.6 0.5c-0.4 0.2-0.8 0.5-1.1 0.8s-0.4 0.6-0.4 1c0 0.3 0.1 0.6 0.4 0.9 0.3 0.2 0.6 0.5 0.9 0.7 0.4 0.2 0.8 0.5 1.2 0.8s0.8 0.6 1.2 1c0.4 0.4 0.7 0.9 0.9 1.4 0.3 0.6 0.4 1.2 0.4 2 0 1.2-0.2 2.2-0.7 3.1-0.4 0.8-1 1.5-1.8 2.1-0.7 0.5-1.6 0.9-2.6 1.2s-2.1 0.4-3.2 0.4v-3.6c0.3 0 0.8-0.1 1.3-0.2s1.1-0.3 1.6-0.6c0.5-0.3 1-0.6 1.3-1 0.4-0.4 0.6-1 0.5-1.6 0-0.3-0.1-0.6-0.4-0.8-0.2-0.2-0.6-0.5-0.9-0.7-0.4-0.2-0.7-0.5-1.1-0.8s-0.8-0.6-1.2-1c-0.4-0.4-0.7-0.9-0.9-1.5s-0.3-1.3-0.3-2.1c0-0.9 0.2-1.7 0.7-2.4s1.1-1.4 1.9-1.9c0.8-0.5 1.7-0.9 2.6-1.2 1.2-0.2 2.2-0.3 3.1-0.3z"></path>
      <path fill="#fafafa" style="fill: var(--color2, #fafafa)" d="M104 1h96v1h-96v-1z"></path>
      <path fill="#fafafa" style="fill: var(--color2, #fafafa)" d="M104 31h96v1h-96v-1z"></path>
    </symbol>
    <symbol id="icon-facebook" viewBox="0 0 18 32">
      <path d="M14.45 5.602h2.924v-4.947c-1.416-0.147-2.839-0.22-4.262-0.218-4.231 0-7.124 2.582-7.124 7.311v4.076h-4.776v5.538h4.776v14.187h5.724v-14.187h4.76l0.716-5.538h-5.476v-3.531c0-1.633 0.436-2.691 2.738-2.691z"></path>
    </symbol>
    <symbol id="icon-instagram" viewBox="0 0 32 32">
      <path d="M23.983 6.229c-0.354 0-0.701 0.105-0.996 0.302s-0.524 0.477-0.66 0.804c-0.136 0.327-0.171 0.688-0.102 1.035s0.24 0.667 0.491 0.918c0.251 0.251 0.57 0.421 0.917 0.49s0.708 0.034 1.035-0.102c0.328-0.136 0.607-0.365 0.804-0.66s0.302-0.641 0.302-0.996c0-0.475-0.189-0.931-0.525-1.267s-0.792-0.525-1.267-0.525zM30.852 9.843c-0.029-1.239-0.261-2.465-0.687-3.629-0.38-0.996-0.971-1.898-1.732-2.643-0.739-0.765-1.643-1.353-2.643-1.717-1.161-0.439-2.388-0.676-3.629-0.702-1.583-0.090-2.091-0.090-6.152-0.090s-4.57 0-6.152 0.090c-1.241 0.026-2.468 0.263-3.629 0.702-0.998 0.368-1.901 0.955-2.643 1.717-0.765 0.739-1.353 1.643-1.717 2.643-0.439 1.161-0.676 2.388-0.702 3.629-0.090 1.583-0.090 2.091-0.090 6.153s0 4.57 0.090 6.152c0.026 1.241 0.263 2.468 0.702 3.629 0.365 1 0.952 1.904 1.717 2.643 0.742 0.762 1.645 1.349 2.643 1.717 1.161 0.439 2.388 0.676 3.629 0.702 1.583 0.090 2.091 0.090 6.152 0.090s4.57 0 6.152-0.090c1.241-0.026 2.468-0.263 3.629-0.702 1-0.365 1.904-0.952 2.643-1.717 0.765-0.743 1.356-1.645 1.732-2.643 0.426-1.164 0.658-2.39 0.687-3.629 0-1.583 0.090-2.091 0.090-6.152s0-4.57-0.090-6.153zM28.164 21.969c-0.011 0.948-0.183 1.887-0.508 2.778-0.238 0.65-0.621 1.237-1.12 1.717-0.484 0.493-1.070 0.876-1.717 1.12-0.891 0.325-1.83 0.497-2.778 0.508-1.493 0.075-2.046 0.090-5.973 0.090s-4.48 0-5.973-0.090c-0.984 0.018-1.964-0.133-2.897-0.448-0.619-0.257-1.178-0.638-1.643-1.12-0.496-0.48-0.874-1.068-1.105-1.717-0.365-0.903-0.567-1.864-0.597-2.837 0-1.493-0.090-2.046-0.090-5.973s0-4.48 0.090-5.973c0.007-0.969 0.184-1.929 0.523-2.837 0.263-0.63 0.666-1.192 1.18-1.643 0.454-0.513 1.014-0.921 1.643-1.195 0.91-0.328 1.87-0.5 2.837-0.508 1.493 0 2.046-0.090 5.973-0.090s4.48 0 5.973 0.090c0.948 0.011 1.887 0.183 2.778 0.508 0.679 0.252 1.288 0.661 1.777 1.195 0.489 0.459 0.872 1.020 1.12 1.643 0.332 0.909 0.504 1.869 0.508 2.837 0.075 1.493 0.090 2.046 0.090 5.973s-0.015 4.48-0.090 5.973zM16.008 8.335c-1.514 0.003-2.994 0.455-4.252 1.298s-2.237 2.041-2.815 3.441c-0.578 1.4-0.727 2.94-0.43 4.425s1.028 2.849 2.1 3.919c1.072 1.070 2.437 1.798 3.923 2.092s3.025 0.142 4.424-0.439c1.399-0.58 2.595-1.562 3.436-2.822s1.29-2.74 1.29-4.255c0.002-1.008-0.195-2.006-0.58-2.937s-0.951-1.777-1.664-2.489c-0.713-0.712-1.56-1.276-2.492-1.659s-1.931-0.579-2.939-0.575zM16.008 20.969c-0.983 0-1.945-0.292-2.763-0.838s-1.455-1.323-1.832-2.232c-0.376-0.909-0.475-1.909-0.283-2.873s0.665-1.851 1.361-2.546c0.695-0.695 1.582-1.169 2.546-1.361s1.965-0.093 2.873 0.283 1.685 1.014 2.232 1.832c0.546 0.818 0.838 1.779 0.838 2.763 0 0.653-0.129 1.3-0.379 1.903s-0.616 1.152-1.078 1.613c-0.462 0.462-1.010 0.828-1.613 1.078s-1.25 0.379-1.903 0.379z"></path>
    </symbol>
    <symbol id="icon-twitter" viewBox="0 0 36 32">
      <path d="M12.4 31.2c-4 0-8-1-11.8-3.2-0.8-0.4-1-1.2-0.8-2s1-1.2 1.8-1.4c2.2 0 4.6-0.4 6.6-1.2-8.8-5.8-7.8-16.2-6-21.2 0.2-0.6 0.8-1 1.4-1.2 0.6 0 1.4 0.2 1.6 0.8 1.4 2 3.8 4.6 5.8 5.6 1.6 0.8 3.2 1.2 5 1.4 0-1.6 0.6-3.2 1.4-4.6 1-1.4 2.4-2.6 4-3.2s3.4-0.8 5.2-0.4c1.2 0.4 2.4 1 3.4 1.8 1.2-0.4 2.2-1 3.2-1.8 0.6-0.4 1.4-0.4 2 0s1 1.2 0.8 2c-0.6 2.2-1.6 4-3 5.6 0 0.2 0 0.4 0 0.6 0 8.4-3.6 15.2-10.2 19-3 2.4-6.6 3.4-10.4 3.4zM8.6 27.2c4.4 1 9 0.2 12.8-2 5.4-3.2 8.4-9 8.4-16 0-0.2 0-0.6 0-1-0.2-0.6 0-1.2 0.6-1.6 0 0 0.2-0.2 0.2-0.2s0 0 0 0c-0.6 0.2-1.4 0-1.8-0.6-0.6-0.8-1.6-1.2-2.6-1.6-1-0.2-2-0.2-3 0.2s-1.8 1-2.4 1.8-1 2-1 3v1.6c0 1-0.8 1.8-1.8 1.8-3 0-5.8-0.6-8.4-1.8-1.6-1-3.2-2.4-4.8-4-0.6 4.2-0.2 11.4 7.8 15 0.6 0.2 1 0.8 1 1.4s-0.2 1.2-0.8 1.6c-1.2 1.2-2.6 1.8-4.2 2.4z"></path>
    </symbol>
    <symbol id="icon-next" viewBox="0 0 32 32">
      <path d="M10.453 9.88l6.107 6.12-6.107 6.12 1.88 1.88 8-8-8-8-1.88 1.88z"/>
    </symbol>
    <symbol id="icon-prev" viewBox="0 0 32 32">
      <path d="M21.547 9.88l-6.107 6.12 6.107 6.12-1.88 1.88-8-8 8-8 1.88 1.88z"/>
    </symbol>
    <symbol id="icon-nothing-found" viewBox="0 0 54 32">
      <path d="M34.679 30.914c-0.014 0-0.014 0 0 0-0.116 0-0.217-0.072-0.261-0.159-0.463-0.985-1.767-1.433-2.766-1.636-3.287-0.666-7.689 0.232-8.702 1.144-0.087 0.072-0.188 0.087-0.29 0.058-0.101-0.043-0.174-0.13-0.188-0.232-0.246-1.738-2.36-2.751-4.257-3.113-2.346-0.449-5.184-0.101-6.067 1.448-0.072 0.116-0.203 0.174-0.333 0.13s-0.217-0.159-0.203-0.304c0.101-1.477-0.681-2.91-2.114-3.852-1.81-1.187-4.156-1.289-6.125-0.261-0.13 0.058-0.275 0.029-0.362-0.072-0.087-0.116-0.087-0.261 0-0.362 1.071-1.245 1.897-3.316 1.347-5.169-0.42-1.433-1.636-2.476-3.504-3.012-0.145-0.043-0.232-0.174-0.203-0.319 0.014-0.145 0.145-0.246 0.29-0.246 0 0 0 0 0 0 2.983 0.043 3.982-1.419 4.315-2.288 0.42-1.129 0.145-2.259-0.376-2.708-0.101-0.087-0.13-0.246-0.058-0.362s0.217-0.174 0.348-0.13c2.071 0.738 5.082-0.174 6.197-1.897 0.507-0.767 0.521-1.593 0.087-2.418-0.348-0.29-0.608-0.637-0.753-1.028-0.043-0.13 0-0.275 0.116-0.348s0.275-0.058 0.362 0.043c0.319 0.333 0.55 0.652 0.724 0.956 0.941 0.753 2.65 1.187 4.431 1.043 2.1-0.174 3.533-1.1 3.823-2.49 0.014-0.087 0.072-0.159 0.145-0.203s0.174-0.043 0.246 0c1.81 0.796 3.461 0.565 4.286-0.029 0.348-0.246 0.753-0.695 0.695-1.405-0.014-0.145 0.087-0.275 0.232-0.304s0.29 0.058 0.333 0.203c0.275 0.999 1.622 1.926 3.432 2.375 1.911 0.478 3.678 0.246 4.503-0.594 0.072-0.072 0.159-0.101 0.261-0.087 0.087 0.014 0.174 0.072 0.217 0.159 0.724 1.506 2.49 2.505 4.851 2.737 2.708 0.275 5.444-0.55 6.516-1.955 0.087-0.116 0.261-0.145 0.376-0.072 0.13 0.072 0.174 0.232 0.116 0.376-0.753 1.622-0.507 3.547 0.652 5.010 1.231 1.535 3.128 2.215 5.111 1.795 0.145-0.029 0.304 0.058 0.333 0.203 0.043 0.145-0.043 0.304-0.188 0.348-1.506 0.492-2.592 2.186-2.751 4.3-0.174 2.215 0.709 5.111 3.678 6.646 0.116 0.058 0.174 0.203 0.145 0.333s-0.145 0.217-0.275 0.217c0 0 0 0 0 0-2.766-0.043-4.822 0.579-6.11 1.853-1.072 1.072-1.622 2.577-1.622 4.518 0 0.116-0.058 0.217-0.174 0.261-0.101 0.043-0.217 0.029-0.304-0.043-1.622-1.347-3.852-1.882-6.125-1.448-1.752 0.333-3.258 1.216-3.808 2.23-0.043 0.101-0.145 0.159-0.246 0.159zM29.148 28.308c0.912 0 1.81 0.072 2.606 0.232 1.405 0.29 2.375 0.796 2.925 1.535 0.767-0.999 2.215-1.795 3.938-2.114 2.244-0.42 4.445 0.014 6.139 1.216 0.101-1.824 0.695-3.287 1.781-4.358 1.231-1.216 3.084-1.897 5.502-2.013-2.519-1.738-3.272-4.518-3.113-6.675 0.13-1.738 0.854-3.229 1.911-4.112-1.68-0.029-3.214-0.782-4.3-2.128-1.043-1.303-1.433-2.939-1.1-4.489-1.448 1.057-3.794 1.593-6.168 1.347-2.389-0.246-4.243-1.231-5.126-2.737-1.216 0.941-3.214 0.883-4.764 0.492-1.26-0.319-2.679-0.97-3.417-1.94-0.145 0.376-0.42 0.71-0.796 0.985-1.1 0.782-2.896 0.854-4.547 0.217-0.478 1.462-2.042 2.433-4.243 2.621-1.376 0.116-2.954-0.116-4.112-0.695 0.217 0.956-0.116 1.723-0.42 2.201-1.1 1.694-3.866 2.708-6.081 2.331 0.333 0.738 0.362 1.752 0.029 2.65-0.261 0.695-1.115 2.201-3.519 2.577 1.68 0.811 2.36 1.998 2.635 2.925 0.492 1.665-0.014 3.49-0.84 4.851 1.926-0.652 4.040-0.405 5.734 0.695 1.347 0.883 2.186 2.172 2.346 3.562 1.361-1.289 4.011-1.491 6.168-1.072 1.94 0.376 4.083 1.39 4.619 3.157 1.187-0.724 3.75-1.26 6.212-1.26z"/>
    </symbol>
  </defs>
</svg>